<svg xmlns="http://www.w3.org/2000/svg" xmlns:xlink="http://www.w3.org/1999/xlink" width="20" height="20" viewBox="0 0 20 20">
    <defs>
        <rect id="b" width="1040" height="564" x="240" y="116" rx="8"/>
        <filter id="a" width="103.7%" height="106.7%" x="-1.8%" y="-3%" filterUnits="objectBoundingBox">
            <feOffset dy="2" in="SourceAlpha" result="shadowOffsetOuter1"/>
            <feGaussianBlur in="shadowOffsetOuter1" result="shadowBlurOuter1" stdDeviation="6"/>
            <feColorMatrix in="shadowBlurOuter1" values="0 0 0 0 0.751381803 0 0 0 0 0.751381803 0 0 0 0 0.751381803 0 0 0 0.5 0"/>
        </filter>
    </defs>
    <g fill="none" fill-rule="evenodd">
        <g transform="translate(-514 -563)">
            <use fill="#000" filter="url(#a)" xlink:href="#b"/>
            <use fill="#FFF" xlink:href="#b"/>
        </g>
        <path fill="#FAFBFB" d="M735 1.138C735-5.566 729.976-11 723.775-11h-954.55C-236.975-11-242-5.577-242 1.138v72.724C-242 80.566-236.976 86-230.775 86h954.55c6.2 0 11.225-5.423 11.225-12.138V1.138z"/>
        <path fill="#B5B5B5" fill-rule="nonzero" d="M20 3.334C20 1.582 18.419 0 16.667 0H3.333C1.581 0 0 1.582 0 3.334v13.332C0 18.418 1.581 20 3.334 20H10v-7.556H7.556V9.111H10V7.812c0-2.24 1.682-4.256 3.75-4.256h2.694v3.333H13.75c-.295 0-.639.358-.639.894v1.328h3.333v3.333h-3.333V20h3.556C18.419 20 20 18.418 20 16.666V3.334z"/>
    </g>
</svg>
